<svg width="335" height="106" viewBox="0 0 335 106" fill="none" xmlns="http://www.w3.org/2000/svg">
<path d="M4.99219 77.697V28.6772L45.8606 6.10449L86.2224 28.6772V77.697L45.8606 99.5959L4.99219 77.697Z" stroke="white" stroke-width="8.36228"/>
<path d="M21.084 36.4858L45.5608 23.73L69.3623 36.4858M21.084 36.4858V69.0468L45.5608 81.9705M21.084 36.4858L45.5608 50.5844M45.5608 81.9705L69.3623 69.0468V36.4858M45.5608 81.9705V50.5844M69.3623 36.4858L45.5608 50.5844" stroke="white" stroke-width="4.18114"/>
<path d="M108.6 76.3105V75.6416L109.804 75.2402C110.696 74.928 111.298 74.5043 111.61 73.9691C111.922 73.4339 112.078 72.7203 112.078 71.8284C112.123 69.1524 112.145 66.4542 112.145 63.7337C112.145 61.0132 112.145 58.2926 112.145 55.5721V52.8962C112.145 50.2202 112.145 47.5443 112.145 44.8684C112.145 42.1479 112.123 39.4496 112.078 36.7737C112.078 35.8817 111.945 35.1681 111.677 34.633C111.454 34.0978 110.919 33.6741 110.071 33.3619L108.6 32.8267V32.1577H140.978L141.447 43.2628H140.778L136.965 36.2385C136.519 35.3911 136.006 34.7221 135.426 34.2316C134.846 33.741 134.043 33.4957 133.018 33.4957H122.247C122.202 36.6622 122.18 39.8956 122.18 43.1959C122.18 46.4962 122.18 49.7742 122.18 53.03H129.137C130.163 53.03 130.921 52.807 131.412 52.361C131.903 51.915 132.371 51.2683 132.817 50.4209L134.222 47.8788H134.891V59.586H134.222L132.75 57.0439C132.304 56.2411 131.836 55.5944 131.345 55.1038C130.899 54.6132 130.163 54.3679 129.137 54.3679H122.18C122.18 57.4898 122.18 60.478 122.18 63.3323C122.18 66.142 122.202 68.9071 122.247 71.6277C122.247 73.367 123.094 74.5043 124.789 75.0395L126.796 75.6416V76.3105H108.6ZM142.372 76.3105V75.6416L143.376 75.374C144.268 75.1064 144.87 74.705 145.182 74.1698C145.539 73.6346 145.717 72.9433 145.717 72.096V51.1568C145.717 50.1756 145.539 49.4621 145.182 49.0161C144.87 48.5255 144.268 48.191 143.376 48.0126L142.372 47.745V47.076L153.879 43.1959L154.548 43.8649L155.15 49.6182V50.1533C155.774 48.9046 156.577 47.7673 157.558 46.7415C158.584 45.6712 159.699 44.8015 160.903 44.1325C162.152 43.4635 163.378 43.129 164.583 43.129C166.277 43.129 167.571 43.5973 168.463 44.5339C169.355 45.4705 169.801 46.6523 169.801 48.0795C169.801 49.5959 169.355 50.7777 168.463 51.6251C167.615 52.4279 166.589 52.8293 165.385 52.8293C163.512 52.8293 161.862 51.8927 160.435 50.0195L160.301 49.8857C159.855 49.2614 159.342 48.9269 158.762 48.8823C158.183 48.7931 157.647 49.0607 157.157 49.6851C156.711 50.0864 156.332 50.577 156.02 51.1568C155.752 51.692 155.484 52.3164 155.217 53.03V71.6946C155.217 73.4785 155.997 74.5935 157.558 75.0395L159.699 75.6416V76.3105H142.372ZM187.782 77.314C184.392 77.314 181.449 76.6227 178.951 75.2402C176.453 73.813 174.513 71.8061 173.131 69.2193C171.793 66.6326 171.124 63.5999 171.124 60.1212C171.124 56.6425 171.838 53.632 173.265 51.0899C174.736 48.5478 176.721 46.5854 179.219 45.2029C181.761 43.8203 184.615 43.129 187.782 43.129C190.948 43.129 193.78 43.8203 196.278 45.2029C198.775 46.5408 200.738 48.4809 202.165 51.023C203.636 53.5651 204.372 56.5979 204.372 60.1212C204.372 63.6445 203.681 66.6995 202.298 69.2862C200.961 71.8284 199.043 73.813 196.545 75.2402C194.092 76.6227 191.171 77.314 187.782 77.314ZM187.782 75.9761C189.343 75.9761 190.591 75.5301 191.528 74.6381C192.464 73.7461 193.133 72.1629 193.535 69.8883C193.981 67.6138 194.204 64.4027 194.204 60.255C194.204 56.0627 193.981 52.8293 193.535 50.5547C193.133 48.2802 192.464 46.6969 191.528 45.805C190.591 44.913 189.343 44.467 187.782 44.467C186.221 44.467 184.95 44.913 183.968 45.805C183.032 46.6969 182.341 48.2802 181.895 50.5547C181.493 52.8293 181.292 56.0627 181.292 60.255C181.292 64.4027 181.493 67.6138 181.895 69.8883C182.341 72.1629 183.032 73.7461 183.968 74.6381C184.95 75.5301 186.221 75.9761 187.782 75.9761ZM221.885 77.314C219.254 77.314 216.89 76.7342 214.794 75.5747C212.698 74.3705 211.025 72.5419 209.776 70.089C208.572 67.5915 207.97 64.4027 207.97 60.5226C207.97 56.5979 208.661 53.3645 210.044 50.8223C211.427 48.2356 213.255 46.3178 215.53 45.0691C217.804 43.7757 220.279 43.129 222.955 43.129C224.516 43.129 226.01 43.2851 227.438 43.5973C228.865 43.9095 230.136 44.3778 231.251 45.0022V36.3054C231.251 35.3688 231.095 34.6776 230.783 34.2316C230.515 33.7856 229.913 33.4734 228.976 33.295L227.705 33.0274V32.3584L239.881 29.4149L240.617 30.017L240.349 39.3827V72.096C240.349 72.9879 240.505 73.7238 240.817 74.3036C241.129 74.8388 241.709 75.2179 242.557 75.4409L243.159 75.6416V76.3105L231.719 77.0464L231.117 74.6381C229.913 75.4409 228.53 76.0876 226.969 76.5781C225.453 77.0687 223.758 77.314 221.885 77.314ZM225.765 74.8388C227.638 74.8388 229.355 74.2813 230.916 73.1663V46.6077C229.266 45.5374 227.571 45.0022 225.832 45.0022C223.691 45.0022 221.863 46.2509 220.346 48.7485C218.83 51.2014 218.072 55.0815 218.072 60.3888C218.072 65.696 218.785 69.4423 220.213 71.6277C221.64 73.7684 223.491 74.8388 225.765 74.8388ZM254.145 39.6503C252.628 39.6503 251.335 39.182 250.265 38.2455C249.239 37.2643 248.726 36.0378 248.726 34.5661C248.726 33.0497 249.239 31.8232 250.265 30.8867C251.335 29.9501 252.628 29.4818 254.145 29.4818C255.661 29.4818 256.932 29.9501 257.958 30.8867C258.984 31.8232 259.496 33.0497 259.496 34.5661C259.496 36.0378 258.984 37.2643 257.958 38.2455C256.932 39.182 255.661 39.6503 254.145 39.6503ZM246.251 76.3105V75.6416L247.187 75.374C248.079 75.1064 248.681 74.705 248.993 74.1698C249.35 73.6346 249.529 72.921 249.529 72.0291V51.0899C249.529 50.1533 249.35 49.4621 248.993 49.0161C248.681 48.5255 248.079 48.191 247.187 48.0126L246.251 47.8119V47.1429L258.493 43.1959L259.162 43.8649L258.961 53.3645V72.096C258.961 72.9879 259.117 73.7015 259.43 74.2367C259.786 74.7719 260.388 75.1733 261.236 75.4409L261.905 75.6416V76.3105H246.251ZM279.45 64.7372C276.373 64.7372 273.764 64.2243 271.623 63.1985V65.473C271.623 66.8556 272.315 67.6807 273.697 67.9483L286.274 70.2897C288.37 70.6911 290.266 71.2263 291.96 71.8953C293.655 72.5196 295.015 73.4339 296.041 74.6381C297.067 75.7977 297.58 77.4032 297.58 79.4548C297.58 81.6401 296.866 83.6471 295.439 85.4756C294.012 87.3488 291.894 88.8428 289.084 89.9578C286.319 91.1174 282.862 91.6971 278.715 91.6971C275.147 91.6971 272.315 91.318 270.218 90.5599C268.122 89.8463 266.628 88.9097 265.736 87.7501C264.889 86.5906 264.465 85.3641 264.465 84.0707C264.465 82.4652 265 80.8373 266.071 79.1872C267.186 77.5816 268.546 76.2882 270.152 75.3071C268.769 74.7719 267.766 74.0806 267.141 73.2332C266.517 72.3859 266.205 71.4716 266.205 70.4904C266.205 69.5984 266.428 68.7733 266.874 68.0152C267.364 67.2124 267.944 66.4096 268.613 65.6068L270.821 62.7971C267.565 60.924 265.937 57.9804 265.937 53.9665C265.937 50.7554 267.074 48.1464 269.349 46.1394C271.668 44.1325 275.057 43.129 279.517 43.129C281.792 43.129 283.777 43.3966 285.471 43.9318C287.211 44.467 288.638 45.2252 289.753 46.2063C291.18 45.9834 292.518 45.6266 293.767 45.136C295.06 44.6008 296.22 43.8872 297.245 42.9952L298.182 43.6642V47.076H290.622C292.228 48.86 293.031 51.1568 293.031 53.9665C293.031 57.0885 291.871 59.6752 289.552 61.7267C287.278 63.7337 283.91 64.7372 279.45 64.7372ZM279.384 63.3992C281.167 63.3992 282.461 62.6633 283.264 61.1915C284.111 59.7198 284.535 57.2669 284.535 53.8327C284.535 50.3986 284.111 47.9903 283.264 46.6077C282.461 45.1806 281.212 44.467 279.517 44.467C277.867 44.467 276.618 45.2029 275.771 46.6746C274.924 48.1018 274.5 50.5324 274.5 53.9665C274.5 57.4006 274.879 59.8313 275.637 61.2584C276.44 62.6856 277.689 63.3992 279.384 63.3992ZM269.416 81.93C269.416 84.5613 270.218 86.546 271.824 87.8839C273.474 89.2219 276.061 89.8909 279.584 89.8909C283.286 89.8909 286.073 89.2888 287.947 88.0846C289.82 86.8805 290.756 85.1857 290.756 83.0004C290.756 81.7516 290.288 80.7481 289.351 79.9899C288.459 79.2318 286.921 78.652 284.735 78.2506L272.627 75.9761C272.27 75.8869 271.913 75.7977 271.556 75.7085C270.932 76.6004 270.419 77.6039 270.018 78.7189C269.616 79.8785 269.416 80.9488 269.416 81.93ZM316.286 77.314C312.897 77.314 309.953 76.6227 307.456 75.2402C304.958 73.813 303.018 71.8061 301.636 69.2193C300.298 66.6326 299.629 63.5999 299.629 60.1212C299.629 56.6425 300.342 53.632 301.769 51.0899C303.241 48.5478 305.226 46.5854 307.723 45.2029C310.265 43.8203 313.12 43.129 316.286 43.129C319.453 43.129 322.285 43.8203 324.782 45.2029C327.28 46.5408 329.242 48.4809 330.669 51.023C332.141 53.5651 332.877 56.5979 332.877 60.1212C332.877 63.6445 332.186 66.6995 330.803 69.2862C329.465 71.8284 327.547 73.813 325.05 75.2402C322.597 76.6227 319.676 77.314 316.286 77.314ZM316.286 75.9761C317.847 75.9761 319.096 75.5301 320.033 74.6381C320.969 73.7461 321.638 72.1629 322.04 69.8883C322.486 67.6138 322.709 64.4027 322.709 60.255C322.709 56.0627 322.486 52.8293 322.04 50.5547C321.638 48.2802 320.969 46.6969 320.033 45.805C319.096 44.913 317.847 44.467 316.286 44.467C314.725 44.467 313.454 44.913 312.473 45.805C311.536 46.6969 310.845 48.2802 310.399 50.5547C309.998 52.8293 309.797 56.0627 309.797 60.255C309.797 64.4027 309.998 67.6138 310.399 69.8883C310.845 72.1629 311.536 73.7461 312.473 74.6381C313.454 75.5301 314.725 75.9761 316.286 75.9761Z" fill="white"/>
</svg>
