<svg width="192" height="50" viewBox="0 0 192 50" fill="none" xmlns="http://www.w3.org/2000/svg">
<path d="M2 36.8852V13.4372L21.5489 2.63977L40.8556 13.4372V36.8852L21.5489 47.3603L2 36.8852Z" stroke="#fff" stroke-width="4"/>
<path d="M9.69727 17.1723L21.4055 11.0707L32.7907 17.1723M9.69727 17.1723V32.7475L21.4055 38.9294M9.69727 17.1723L21.4055 23.9162M21.4055 38.9294L32.7907 32.7475V17.1723M21.4055 38.9294V23.9162M32.7907 17.1723L21.4055 23.9162" stroke="#fff" stroke-width="2"/>
<path d="M51.3355 22V21.76L51.8155 21.592C52.3595 21.416 52.6315 20.96 52.6315 20.224V7.936C52.6315 7.616 52.5915 7.36 52.5115 7.168C52.4475 6.976 52.2635 6.816 51.9595 6.688L51.3355 6.4V6.16H55.9675L60.4075 17.776L64.5835 6.16H69.3115V6.4L68.9275 6.544C68.6235 6.656 68.4155 6.816 68.3035 7.024C68.1915 7.216 68.1355 7.472 68.1355 7.792V20.344C68.1355 20.664 68.1755 20.912 68.2555 21.088C68.3355 21.264 68.5275 21.416 68.8315 21.544L69.3115 21.76V22H63.3355V21.76L63.8395 21.544C64.1435 21.416 64.3355 21.264 64.4155 21.088C64.4955 20.912 64.5355 20.664 64.5355 20.344V14.944L64.5835 8.08L59.5675 22H58.3675L53.1355 8.248L53.2075 14.224V20.272C53.2075 20.624 53.2555 20.912 53.3515 21.136C53.4635 21.344 53.6715 21.496 53.9755 21.592L54.5035 21.76V22H51.3355ZM73.3551 22.36C72.4271 22.36 71.6431 22.096 71.0031 21.568C70.3791 21.04 70.0671 20.28 70.0671 19.288C70.0671 18.536 70.4511 17.848 71.2191 17.224C71.9871 16.584 73.1951 16.104 74.8431 15.784C75.0991 15.736 75.3871 15.688 75.7071 15.64C76.0271 15.576 76.3631 15.512 76.7151 15.448V13.552C76.7151 12.464 76.5791 11.704 76.3071 11.272C76.0511 10.824 75.6431 10.6 75.0831 10.6C74.6991 10.6 74.3951 10.728 74.1711 10.984C73.9471 11.224 73.8031 11.648 73.7391 12.256L73.6911 12.52C73.6591 13.208 73.4911 13.712 73.1871 14.032C72.8831 14.352 72.5071 14.512 72.0591 14.512C71.6431 14.512 71.2991 14.384 71.0271 14.128C70.7551 13.872 70.6191 13.528 70.6191 13.096C70.6191 12.44 70.8431 11.888 71.2911 11.44C71.7551 10.992 72.3631 10.656 73.1151 10.432C73.8671 10.208 74.6831 10.096 75.5631 10.096C76.9871 10.096 78.0831 10.448 78.8511 11.152C79.6351 11.84 80.0271 12.968 80.0271 14.536V19.84C80.0271 20.56 80.3631 20.92 81.0351 20.92H81.5631L81.7791 21.112C81.4751 21.496 81.1391 21.792 80.7711 22C80.4191 22.208 79.9151 22.312 79.2591 22.312C78.5551 22.312 77.9951 22.152 77.5791 21.832C77.1791 21.496 76.9151 21.056 76.7871 20.512C76.3071 21.024 75.8111 21.464 75.2991 21.832C74.8031 22.184 74.1551 22.36 73.3551 22.36ZM74.8191 20.896C75.1391 20.896 75.4351 20.824 75.7071 20.68C75.9951 20.52 76.3311 20.28 76.7151 19.96V15.928C76.5551 15.96 76.3951 15.992 76.2351 16.024C76.0751 16.056 75.8911 16.088 75.6831 16.12C74.9471 16.312 74.3551 16.64 73.9071 17.104C73.4751 17.552 73.2591 18.16 73.2591 18.928C73.2591 19.584 73.4111 20.08 73.7151 20.416C74.0191 20.736 74.3871 20.896 74.8191 20.896ZM82.2261 22V21.76L82.5861 21.664C82.9061 21.568 83.1221 21.424 83.2341 21.232C83.3621 21.04 83.4261 20.792 83.4261 20.488V12.976C83.4261 12.624 83.3621 12.368 83.2341 12.208C83.1221 12.032 82.9061 11.912 82.5861 11.848L82.2261 11.752V11.512L86.3541 10.12L86.5941 10.36L86.8101 12.424V12.616C87.0341 12.168 87.3221 11.76 87.6741 11.392C88.0421 11.008 88.4421 10.696 88.8741 10.456C89.3221 10.216 89.7621 10.096 90.1941 10.096C90.8021 10.096 91.2661 10.264 91.5861 10.6C91.9061 10.936 92.0661 11.36 92.0661 11.872C92.0661 12.416 91.9061 12.84 91.5861 13.144C91.2821 13.432 90.9141 13.576 90.4821 13.576C89.8101 13.576 89.2181 13.24 88.7061 12.568L88.6581 12.52C88.4981 12.296 88.3141 12.176 88.1061 12.16C87.8981 12.128 87.7061 12.224 87.5301 12.448C87.3701 12.592 87.2341 12.768 87.1221 12.976C87.0261 13.168 86.9301 13.392 86.8341 13.648V20.344C86.8341 20.984 87.1141 21.384 87.6741 21.544L88.4421 21.76V22H82.2261ZM98.3968 22.36C97.3088 22.36 96.3168 22.128 95.4208 21.664C94.5408 21.184 93.8368 20.496 93.3088 19.6C92.7968 18.688 92.5408 17.576 92.5408 16.264C92.5408 14.968 92.8208 13.864 93.3808 12.952C93.9568 12.024 94.7168 11.32 95.6608 10.84C96.6208 10.344 97.6688 10.096 98.8048 10.096C99.7328 10.096 100.517 10.248 101.157 10.552C101.797 10.856 102.285 11.256 102.621 11.752C102.957 12.232 103.125 12.736 103.125 13.264C103.125 13.712 102.989 14.064 102.717 14.32C102.445 14.56 102.093 14.68 101.661 14.68C101.197 14.68 100.821 14.512 100.533 14.176C100.245 13.84 100.077 13.4 100.029 12.856C100.013 12.504 100.021 12.208 100.053 11.968C100.085 11.712 100.085 11.456 100.053 11.2C99.9888 10.928 99.8848 10.752 99.7408 10.672C99.6128 10.576 99.4288 10.528 99.1888 10.528C98.2128 10.528 97.4528 10.952 96.9088 11.8C96.3808 12.648 96.1168 14 96.1168 15.856C96.1168 17.472 96.4128 18.712 97.0048 19.576C97.6128 20.424 98.5408 20.848 99.7888 20.848C100.541 20.848 101.149 20.712 101.613 20.44C102.077 20.168 102.525 19.76 102.957 19.216L103.197 19.408C102.797 20.352 102.181 21.08 101.349 21.592C100.517 22.104 99.5328 22.36 98.3968 22.36ZM107.184 8.848C106.64 8.848 106.176 8.68 105.792 8.344C105.424 7.992 105.24 7.552 105.24 7.024C105.24 6.48 105.424 6.04 105.792 5.704C106.176 5.368 106.64 5.2 107.184 5.2C107.728 5.2 108.184 5.368 108.552 5.704C108.92 6.04 109.104 6.48 109.104 7.024C109.104 7.552 108.92 7.992 108.552 8.344C108.184 8.68 107.728 8.848 107.184 8.848ZM104.352 22V21.76L104.688 21.664C105.008 21.568 105.224 21.424 105.336 21.232C105.464 21.04 105.528 20.784 105.528 20.464V12.952C105.528 12.616 105.464 12.368 105.336 12.208C105.224 12.032 105.008 11.912 104.688 11.848L104.352 11.776V11.536L108.744 10.12L108.984 10.36L108.912 13.768V20.488C108.912 20.808 108.968 21.064 109.08 21.256C109.208 21.448 109.424 21.592 109.728 21.688L109.968 21.76V22H104.352ZM111.031 22V21.76L111.367 21.664C111.927 21.504 112.207 21.112 112.207 20.488V12.976C112.207 12.624 112.151 12.368 112.039 12.208C111.927 12.032 111.711 11.912 111.391 11.848L111.031 11.752V11.512L115.135 10.12L115.375 10.36L115.567 11.8C116.127 11.304 116.759 10.896 117.463 10.576C118.167 10.256 118.863 10.096 119.551 10.096C120.607 10.096 121.415 10.384 121.975 10.96C122.551 11.536 122.839 12.416 122.839 13.6V20.512C122.839 21.136 123.143 21.528 123.751 21.688L123.967 21.76V22H118.303V21.76L118.615 21.664C119.175 21.488 119.455 21.096 119.455 20.488V12.832C119.455 11.808 118.943 11.296 117.919 11.296C117.215 11.296 116.447 11.648 115.615 12.352V20.512C115.615 21.136 115.895 21.528 116.455 21.688L116.671 21.76V22H111.031ZM51.3835 44V43.76L51.8875 43.568C52.2075 43.456 52.4155 43.304 52.5115 43.112C52.6075 42.92 52.6555 42.672 52.6555 42.368V29.816C52.6555 29.496 52.6075 29.24 52.5115 29.048C52.4155 28.856 52.2075 28.704 51.8875 28.592L51.3835 28.4V28.16H57.3595V28.4L56.8315 28.616C56.5595 28.712 56.3755 28.856 56.2795 29.048C56.1835 29.24 56.1355 29.504 56.1355 29.84V42.392C56.1355 42.712 56.1835 42.96 56.2795 43.136C56.3915 43.312 56.5995 43.456 56.9035 43.568L57.3595 43.76V44H51.3835ZM60.2395 44V43.76L60.5515 43.664C60.8715 43.568 61.0395 43.408 61.0555 43.184C61.0715 42.96 60.9755 42.704 60.7675 42.416L56.1595 35.864L62.2315 29.672C62.4555 29.448 62.5755 29.232 62.5915 29.024C62.6235 28.816 62.4715 28.656 62.1355 28.544L61.7275 28.4V28.16H65.2315V28.4L64.6075 28.592C64.2555 28.704 63.9755 28.84 63.7675 29C63.5595 29.16 63.3195 29.376 63.0475 29.648L58.7515 34.04L64.3915 42.272C64.6315 42.624 64.8555 42.912 65.0635 43.136C65.2875 43.36 65.5995 43.536 65.9995 43.664L66.3355 43.76V44H60.2395ZM70.6695 44.072L66.9735 33.92C66.7975 33.408 66.4455 33.048 65.9175 32.84L65.5095 32.696V32.456H71.3895V32.696L71.0295 32.792C70.4055 32.984 70.1975 33.368 70.4055 33.944L72.6375 40.736L74.6295 35.456L74.1735 34.088C74.0615 33.736 73.9415 33.472 73.8135 33.296C73.7015 33.104 73.5495 32.968 73.3575 32.888L72.9495 32.696V32.456H77.9175V32.696L77.5815 32.84C77.3415 32.936 77.1975 33.064 77.1495 33.224C77.1015 33.384 77.1335 33.624 77.2455 33.944L79.4535 40.616L81.7335 33.992C81.9575 33.384 81.8375 33 81.3735 32.84L80.8455 32.696V32.456H83.7255V32.696L83.1495 32.864C82.8775 32.944 82.6775 33.072 82.5495 33.248C82.4375 33.408 82.3335 33.632 82.2375 33.92L78.7815 44.072H77.5575L74.8935 36.224L72.0615 44.072H70.6695ZM87.3795 30.848C86.8355 30.848 86.3715 30.68 85.9875 30.344C85.6195 29.992 85.4355 29.552 85.4355 29.024C85.4355 28.48 85.6195 28.04 85.9875 27.704C86.3715 27.368 86.8355 27.2 87.3795 27.2C87.9235 27.2 88.3795 27.368 88.7475 27.704C89.1155 28.04 89.2995 28.48 89.2995 29.024C89.2995 29.552 89.1155 29.992 88.7475 30.344C88.3795 30.68 87.9235 30.848 87.3795 30.848ZM84.5475 44V43.76L84.8835 43.664C85.2035 43.568 85.4195 43.424 85.5315 43.232C85.6595 43.04 85.7235 42.784 85.7235 42.464V34.952C85.7235 34.616 85.6595 34.368 85.5315 34.208C85.4195 34.032 85.2035 33.912 84.8835 33.848L84.5475 33.776V33.536L88.9395 32.12L89.1795 32.36L89.1075 35.768V42.488C89.1075 42.808 89.1635 43.064 89.2755 43.256C89.4035 43.448 89.6195 43.592 89.9235 43.688L90.1635 43.76V44H84.5475ZM94.7301 44.36C93.8021 44.36 93.0181 44.096 92.3781 43.568C91.7541 43.04 91.4421 42.28 91.4421 41.288C91.4421 40.536 91.8261 39.848 92.5941 39.224C93.3621 38.584 94.5701 38.104 96.2181 37.784C96.4741 37.736 96.7621 37.688 97.0821 37.64C97.4021 37.576 97.7381 37.512 98.0901 37.448V35.552C98.0901 34.464 97.9541 33.704 97.6821 33.272C97.4261 32.824 97.0181 32.6 96.4581 32.6C96.0741 32.6 95.7701 32.728 95.5461 32.984C95.3221 33.224 95.1781 33.648 95.1141 34.256L95.0661 34.52C95.0341 35.208 94.8661 35.712 94.5621 36.032C94.2581 36.352 93.8821 36.512 93.4341 36.512C93.0181 36.512 92.6741 36.384 92.4021 36.128C92.1301 35.872 91.9941 35.528 91.9941 35.096C91.9941 34.44 92.2181 33.888 92.6661 33.44C93.1301 32.992 93.7381 32.656 94.4901 32.432C95.2421 32.208 96.0581 32.096 96.9381 32.096C98.3621 32.096 99.4581 32.448 100.226 33.152C101.01 33.84 101.402 34.968 101.402 36.536V41.84C101.402 42.56 101.738 42.92 102.41 42.92H102.938L103.154 43.112C102.85 43.496 102.514 43.792 102.146 44C101.794 44.208 101.29 44.312 100.634 44.312C99.9301 44.312 99.3701 44.152 98.9541 43.832C98.5541 43.496 98.2901 43.056 98.1621 42.512C97.6821 43.024 97.1861 43.464 96.6741 43.832C96.1781 44.184 95.5301 44.36 94.7301 44.36ZM96.1941 42.896C96.5141 42.896 96.8101 42.824 97.0821 42.68C97.3701 42.52 97.7061 42.28 98.0901 41.96V37.928C97.9301 37.96 97.7701 37.992 97.6101 38.024C97.4501 38.056 97.2661 38.088 97.0581 38.12C96.3221 38.312 95.7301 38.64 95.2821 39.104C94.8501 39.552 94.6341 40.16 94.6341 40.928C94.6341 41.584 94.7861 42.08 95.0901 42.416C95.3941 42.736 95.7621 42.896 96.1941 42.896ZM108.208 44.36C107.184 44.36 106.384 44.104 105.808 43.592C105.248 43.08 104.968 42.264 104.968 41.144V32.936H103.312V32.696L103.888 32.6C104.384 32.488 104.808 32.328 105.16 32.12C105.528 31.912 105.888 31.632 106.24 31.28L108.208 29.096H108.448L108.376 32.456H111.064V32.936H108.352V41.576C108.352 42.136 108.472 42.56 108.712 42.848C108.968 43.136 109.288 43.28 109.672 43.28C110.008 43.28 110.304 43.2 110.56 43.04C110.816 42.864 111.072 42.632 111.328 42.344L111.568 42.584C111.248 43.128 110.808 43.56 110.248 43.88C109.688 44.2 109.008 44.36 108.208 44.36ZM112.368 44V43.76L112.728 43.64C113.272 43.464 113.544 43.072 113.544 42.464V29.624C113.544 29.304 113.48 29.064 113.352 28.904C113.224 28.744 113 28.616 112.68 28.52L112.368 28.448V28.208L116.76 27.176L117.048 27.392L116.976 30.752V42.464C116.976 43.104 117.24 43.504 117.768 43.664L118.104 43.76V44H112.368ZM121.272 44L117 38L121.44 33.896C121.648 33.704 121.768 33.504 121.8 33.296C121.848 33.072 121.712 32.912 121.392 32.816L120.984 32.696V32.456H124.56V32.696L123.84 32.888C123.488 33 123.2 33.136 122.976 33.296C122.768 33.44 122.512 33.648 122.208 33.92L119.52 36.44L123.816 42.416C124.072 42.768 124.312 43.04 124.536 43.232C124.76 43.424 125.048 43.584 125.4 43.712L125.496 43.76V44H121.272ZM131.892 44.36C130.676 44.36 129.62 44.112 128.724 43.616C127.828 43.104 127.132 42.384 126.636 41.456C126.156 40.528 125.916 39.44 125.916 38.192C125.916 36.944 126.172 35.864 126.684 34.952C127.212 34.04 127.924 33.336 128.82 32.84C129.732 32.344 130.756 32.096 131.892 32.096C133.028 32.096 134.044 32.344 134.94 32.84C135.836 33.32 136.54 34.016 137.052 34.928C137.58 35.84 137.844 36.928 137.844 38.192C137.844 39.456 137.596 40.552 137.1 41.48C136.62 42.392 135.932 43.104 135.036 43.616C134.156 44.112 133.108 44.36 131.892 44.36ZM131.892 43.88C132.452 43.88 132.9 43.72 133.236 43.4C133.572 43.08 133.812 42.512 133.956 41.696C134.116 40.88 134.196 39.728 134.196 38.24C134.196 36.736 134.116 35.576 133.956 34.76C133.812 33.944 133.572 33.376 133.236 33.056C132.9 32.736 132.452 32.576 131.892 32.576C131.332 32.576 130.876 32.736 130.524 33.056C130.188 33.376 129.94 33.944 129.78 34.76C129.636 35.576 129.564 36.736 129.564 38.24C129.564 39.728 129.636 40.88 129.78 41.696C129.94 42.512 130.188 43.08 130.524 43.4C130.876 43.72 131.332 43.88 131.892 43.88ZM143.677 44.072L139.981 33.92C139.805 33.408 139.453 33.048 138.925 32.84L138.517 32.696V32.456H144.397V32.696L144.037 32.792C143.413 32.984 143.205 33.368 143.413 33.944L145.645 40.736L147.637 35.456L147.181 34.088C147.069 33.736 146.949 33.472 146.821 33.296C146.709 33.104 146.557 32.968 146.365 32.888L145.957 32.696V32.456H150.925V32.696L150.589 32.84C150.349 32.936 150.205 33.064 150.157 33.224C150.109 33.384 150.141 33.624 150.253 33.944L152.461 40.616L154.741 33.992C154.965 33.384 154.845 33 154.381 32.84L153.853 32.696V32.456H156.733V32.696L156.157 32.864C155.885 32.944 155.685 33.072 155.557 33.248C155.445 33.408 155.341 33.632 155.245 33.92L151.789 44.072H150.565L147.901 36.224L145.069 44.072H143.677ZM161.284 44.36C160.5 44.36 159.796 44.264 159.172 44.072C158.548 43.896 157.972 43.672 157.444 43.4L157.468 40.544H157.708L158.524 41.984C158.876 42.624 159.26 43.104 159.676 43.424C160.108 43.728 160.652 43.88 161.308 43.88C162.076 43.88 162.692 43.712 163.156 43.376C163.636 43.024 163.876 42.56 163.876 41.984C163.876 41.456 163.708 41.024 163.372 40.688C163.036 40.352 162.412 40.048 161.5 39.776L160.492 39.464C159.516 39.176 158.748 38.728 158.188 38.12C157.628 37.512 157.348 36.768 157.348 35.888C157.348 34.832 157.764 33.936 158.596 33.2C159.428 32.464 160.62 32.096 162.172 32.096C162.796 32.096 163.38 32.168 163.924 32.312C164.484 32.44 165.02 32.64 165.532 32.912L165.388 35.504H165.148L164.308 34.016C164.004 33.488 163.7 33.12 163.396 32.912C163.108 32.688 162.668 32.576 162.076 32.576C161.532 32.576 161.02 32.728 160.54 33.032C160.06 33.336 159.82 33.768 159.82 34.328C159.82 34.872 160.02 35.304 160.42 35.624C160.836 35.944 161.444 36.24 162.244 36.512L163.324 36.824C164.476 37.176 165.3 37.664 165.796 38.288C166.292 38.896 166.54 39.632 166.54 40.496C166.54 41.664 166.076 42.6 165.148 43.304C164.236 44.008 162.948 44.36 161.284 44.36ZM167.258 44V43.76L167.618 43.64C168.162 43.464 168.434 43.072 168.434 42.464V29.624C168.434 29.304 168.37 29.064 168.242 28.904C168.114 28.744 167.89 28.616 167.57 28.52L167.258 28.448V28.208L171.65 27.176L171.938 27.392L171.866 30.752V42.464C171.866 43.104 172.13 43.504 172.658 43.664L172.994 43.76V44H167.258ZM176.162 44L171.89 38L176.33 33.896C176.538 33.704 176.658 33.504 176.69 33.296C176.738 33.072 176.602 32.912 176.282 32.816L175.874 32.696V32.456H179.45V32.696L178.73 32.888C178.378 33 178.09 33.136 177.866 33.296C177.658 33.44 177.402 33.648 177.098 33.92L174.41 36.44L178.706 42.416C178.962 42.768 179.202 43.04 179.426 43.232C179.65 43.424 179.938 43.584 180.29 43.712L180.386 43.76V44H176.162ZM184.059 30.848C183.515 30.848 183.051 30.68 182.667 30.344C182.299 29.992 182.115 29.552 182.115 29.024C182.115 28.48 182.299 28.04 182.667 27.704C183.051 27.368 183.515 27.2 184.059 27.2C184.603 27.2 185.059 27.368 185.427 27.704C185.795 28.04 185.979 28.48 185.979 29.024C185.979 29.552 185.795 29.992 185.427 30.344C185.059 30.68 184.603 30.848 184.059 30.848ZM181.227 44V43.76L181.563 43.664C181.883 43.568 182.099 43.424 182.211 43.232C182.339 43.04 182.403 42.784 182.403 42.464V34.952C182.403 34.616 182.339 34.368 182.211 34.208C182.099 34.032 181.883 33.912 181.563 33.848L181.227 33.776V33.536L185.619 32.12L185.859 32.36L185.787 35.768V42.488C185.787 42.808 185.843 43.064 185.955 43.256C186.083 43.448 186.299 43.592 186.603 43.688L186.843 43.76V44H181.227Z" fill="#fff"/>
</svg>
